<?xml version="1.0" encoding="UTF-8"?>
  <svg xmlns="http://www.w3.org/2000/svg" width="800" height="400" viewBox="0 0 800 400">
    <rect x="0" y="0" width="800" height="400" fill="#1a1a1a" />
    <line x1="60" y1="40.00" x2="780" y2="40.00" stroke="#333" stroke-width="1" />
<line x1="60" y1="104.00" x2="780" y2="104.00" stroke="#333" stroke-width="1" />
<line x1="60" y1="168.00" x2="780" y2="168.00" stroke="#333" stroke-width="1" />
<line x1="60" y1="232.00" x2="780" y2="232.00" stroke="#333" stroke-width="1" />
<line x1="60" y1="296.00" x2="780" y2="296.00" stroke="#333" stroke-width="1" />
<line x1="60" y1="360.00" x2="780" y2="360.00" stroke="#333" stroke-width="1" />
    <polygon points="660.00,-104.44 680.00,-79.36 700.00,-77.30 720.00,-112.77 740.00,-76.14 760.00,-69.60 780.00,-65.27 780.00,457.42 760.00,453.51 740.00,447.60 720.00,414.45 700.00,446.55 680.00,444.68 660.00,421.99" fill="rgba(0,150,255,0.1)" />
    <polyline fill="none" stroke="#00ff88" stroke-width="2" points="60.00,182.08 80.00,147.73 100.00,145.55 120.00,229.68 140.00,237.39 160.00,256.67 180.00,240.09 200.00,209.63 220.00,167.75 240.00,148.66 260.00,146.16 280.00,161.52 300.00,177.39 320.00,193.76 340.00,191.69 360.00,196.66 380.00,215.57 400.00,215.12 420.00,216.96 440.00,223.90 460.00,215.17 480.00,197.82 500.00,217.44 520.00,227.50 540.00,214.49 560.00,165.12 580.00,174.60 600.00,166.70 620.00,164.99 640.00,172.67" />
    <polyline fill="none" stroke="#0088ff" stroke-dasharray="5,5" stroke-width="2" points="660.00,158.77 680.00,182.66 700.00,184.62 720.00,150.84 740.00,185.73 760.00,191.95 780.00,196.07" />
    <text x="400" y="25" fill="#fff" font-size="14" text-anchor="middle">Price Forecast</text>
    <text x="50" y="364.00" fill="#fff" font-size="12" text-anchor="end">$18.81</text>
<text x="50" y="300.00" fill="#fff" font-size="12" text-anchor="end">$19.05</text>
<text x="50" y="236.00" fill="#fff" font-size="12" text-anchor="end">$19.29</text>
<text x="50" y="172.00" fill="#fff" font-size="12" text-anchor="end">$19.53</text>
<text x="50" y="108.00" fill="#fff" font-size="12" text-anchor="end">$19.76</text>
<text x="50" y="44.00" fill="#fff" font-size="12" text-anchor="end">$20.00</text>
    
    <text x="630" y="50" fill="#00ff88" font-size="12">● Historical</text>
    <text x="630" y="70" fill="#0088ff" font-size="12">● Forecast</text>
  
  </svg>