<?xml version="1.0" encoding="UTF-8"?>
  <svg xmlns="http://www.w3.org/2000/svg" width="800" height="400" viewBox="0 0 800 400">
    <rect x="0" y="0" width="800" height="400" fill="#1a1a1a" />
    <line x1="60" y1="40.00" x2="780" y2="40.00" stroke="#333" stroke-width="1" />
<line x1="60" y1="104.00" x2="780" y2="104.00" stroke="#333" stroke-width="1" />
<line x1="60" y1="168.00" x2="780" y2="168.00" stroke="#333" stroke-width="1" />
<line x1="60" y1="232.00" x2="780" y2="232.00" stroke="#333" stroke-width="1" />
<line x1="60" y1="296.00" x2="780" y2="296.00" stroke="#333" stroke-width="1" />
<line x1="60" y1="360.00" x2="780" y2="360.00" stroke="#333" stroke-width="1" />
    <polyline fill="none" stroke="#00ff88" stroke-width="2" points="60.00,137.50 68.09,161.82 76.18,143.46 84.27,149.35 92.36,162.44 100.45,130.13 108.54,155.74 116.63,155.80 124.72,141.29 132.81,122.71 140.90,158.13 148.99,160.85 157.08,134.28 165.17,137.17 173.26,131.90 181.35,162.15 189.44,135.90 197.53,148.22 205.62,183.18 213.71,195.86 221.80,196.19 229.89,246.97 237.98,291.88 246.07,281.52 254.16,234.60 262.25,230.28 270.34,219.58 278.43,216.92 286.52,217.92 294.61,199.44 302.70,183.98 310.79,139.73 318.88,137.19 326.97,136.43 335.06,141.73 343.15,139.05 351.24,160.41 359.33,176.26 367.42,159.44 375.51,162.13 383.60,134.11 391.69,123.56 399.78,111.72 407.87,144.39 415.96,165.60 424.04,189.53 432.13,215.62 440.22,223.71 448.31,216.08 456.40,192.82 464.49,214.48 472.58,202.60 480.67,202.47 488.76,127.53 496.85,123.55 504.94,130.14 513.03,151.20 521.12,127.12 529.21,130.00 537.30,142.84 545.39,151.64 553.48,128.40 561.57,126.92 569.66,183.84 577.75,189.06 585.84,202.11 593.93,190.89 602.02,170.28 610.11,141.94 618.20,129.02 626.29,127.33 634.38,137.73 642.47,148.47 650.56,159.54 658.65,158.14 666.74,161.51 674.83,174.30 682.92,173.99 691.01,175.24 699.10,179.94 707.19,174.03 715.28,162.29 723.37,175.56 731.46,182.37 739.55,173.57 747.64,140.17 755.73,146.58 763.82,141.23 771.91,140.07 780.00,145.27" />
    <polyline fill="none" stroke="#ff8800" stroke-width="1.5" points="294.61,178.10 302.70,179.65 310.79,178.92 318.88,178.71 326.97,178.28 335.06,177.59 343.15,177.89 351.24,178.04 359.33,178.72 367.42,179.33 375.51,180.64 383.60,179.84 391.69,178.60 399.78,177.85 407.87,178.09 415.96,179.21 424.04,180.12 432.13,182.78 440.22,185.30 448.31,186.39 456.40,186.29 464.49,186.90 472.58,185.42 480.67,182.44 488.76,177.31 496.85,173.61 504.94,170.27 513.03,167.99 521.12,165.00 529.21,162.07 537.30,160.18 545.39,159.10 553.48,158.72 561.57,158.38 569.66,159.96 577.75,161.54 585.84,163.64 593.93,164.66 602.02,164.46 610.11,163.88 618.20,162.77 626.29,162.55 634.38,163.02 642.47,164.24 650.56,164.75 658.65,164.50 666.74,163.57 674.83,162.19 682.92,160.53 691.01,159.17 699.10,158.74 707.19,157.39 715.28,156.05 723.37,155.15 731.46,156.98 739.55,158.65 747.64,158.98 755.73,158.83 763.82,159.30 771.91,159.63 780.00,159.71" />
    <text x="400" y="25" fill="#fff" font-size="14" text-anchor="middle">Price History (Last 90 Days)</text>
    <text x="50" y="364.00" fill="#fff" font-size="12" text-anchor="end">$18.33</text>
<text x="50" y="300.00" fill="#fff" font-size="12" text-anchor="end">$18.68</text>
<text x="50" y="236.00" fill="#fff" font-size="12" text-anchor="end">$19.03</text>
<text x="50" y="172.00" fill="#fff" font-size="12" text-anchor="end">$19.38</text>
<text x="50" y="108.00" fill="#fff" font-size="12" text-anchor="end">$19.74</text>
<text x="50" y="44.00" fill="#fff" font-size="12" text-anchor="end">$20.09</text>
    
    <text x="660" y="50" fill="#00ff88" font-size="12">● Price</text>
    <text x="660" y="70" fill="#ff8800" font-size="12">● 30-day MA</text>
  
  </svg>