<?xml version="1.0" encoding="UTF-8"?>
  <svg xmlns="http://www.w3.org/2000/svg" width="800" height="400" viewBox="0 0 800 400">
    <rect x="0" y="0" width="800" height="400" fill="#1a1a1a" />
    <line x1="60" y1="40.00" x2="780" y2="40.00" stroke="#333" stroke-width="1" />
<line x1="60" y1="104.00" x2="780" y2="104.00" stroke="#333" stroke-width="1" />
<line x1="60" y1="168.00" x2="780" y2="168.00" stroke="#333" stroke-width="1" />
<line x1="60" y1="232.00" x2="780" y2="232.00" stroke="#333" stroke-width="1" />
<line x1="60" y1="296.00" x2="780" y2="296.00" stroke="#333" stroke-width="1" />
<line x1="60" y1="360.00" x2="780" y2="360.00" stroke="#333" stroke-width="1" />
    <polyline fill="none" stroke="#00ff88" stroke-width="2" points="60.00,131.72 68.09,129.75 76.18,104.40 84.27,94.95 92.36,67.34 100.45,70.92 108.54,77.57 116.63,73.01 124.72,75.45 132.81,74.63 140.90,74.80 148.99,100.82 157.08,101.89 165.17,125.20 173.26,132.25 181.35,160.36 189.44,171.43 197.53,156.94 205.62,145.27 213.71,166.04 221.80,151.83 229.89,169.34 237.98,167.38 246.07,159.73 254.16,135.57 262.25,123.06 270.34,128.67 278.43,134.39 286.52,144.97 294.61,138.26 302.70,139.67 310.79,140.94 318.88,135.11 326.97,142.97 335.06,145.00 343.15,138.66 351.24,151.46 359.33,138.38 367.42,137.39 375.51,135.21 383.60,126.93 391.69,117.64 399.78,131.76 407.87,143.98 415.96,147.50 424.04,159.71 432.13,167.27 440.22,176.17 448.31,186.72 456.40,183.94 464.49,181.78 472.58,177.21 480.67,181.41 488.76,182.43 496.85,188.98 504.94,189.84 513.03,184.44 521.12,189.44 529.21,176.03 537.30,176.46 545.39,180.63 553.48,185.37 561.57,189.89 569.66,177.33 577.75,186.83 585.84,191.87 593.93,181.95 602.02,168.97 610.11,166.18 618.20,168.91 626.29,177.87 634.38,186.76 642.47,219.22 650.56,222.90 658.65,227.96 666.74,232.54 674.83,246.67 682.92,250.44 691.01,242.04 699.10,248.05 707.19,239.19 715.28,234.24 723.37,236.68 731.46,238.84 739.55,239.03 747.64,250.95 755.73,259.91 763.82,296.28 771.91,325.97 780.00,338.07" />
    <polyline fill="none" stroke="#ff8800" stroke-width="1.5" points="294.61,122.93 302.70,123.20 310.79,123.57 318.88,124.59 326.97,126.19 335.06,128.78 343.15,131.04 351.24,133.50 359.33,135.68 367.42,137.75 375.51,139.77 383.60,141.50 391.69,142.06 399.78,143.06 407.87,143.69 415.96,144.19 424.04,144.17 432.13,144.03 440.22,144.67 448.31,146.06 456.40,146.65 464.49,147.65 472.58,147.91 480.67,148.38 488.76,149.14 496.85,150.92 504.94,153.14 513.03,155.00 521.12,156.84 529.21,157.87 537.30,159.15 545.39,160.51 553.48,161.99 561.57,163.82 569.66,164.97 577.75,166.36 585.84,168.13 593.93,169.15 602.02,170.17 610.11,171.13 618.20,172.25 626.29,173.95 634.38,176.25 642.47,179.17 650.56,181.80 658.65,184.48 666.74,186.91 674.83,189.56 682.92,192.03 691.01,193.88 699.10,196.01 707.19,197.93 715.28,199.83 723.37,201.67 731.46,203.55 739.55,205.22 747.64,207.26 755.73,209.77 763.82,213.33 771.91,218.33 780.00,223.72" />
    <text x="400" y="25" fill="#fff" font-size="14" text-anchor="middle">Price History (Last 90 Days)</text>
    <text x="50" y="364.00" fill="#fff" font-size="12" text-anchor="end">$18.84</text>
<text x="50" y="300.00" fill="#fff" font-size="12" text-anchor="end">$19.96</text>
<text x="50" y="236.00" fill="#fff" font-size="12" text-anchor="end">$21.08</text>
<text x="50" y="172.00" fill="#fff" font-size="12" text-anchor="end">$22.21</text>
<text x="50" y="108.00" fill="#fff" font-size="12" text-anchor="end">$23.33</text>
<text x="50" y="44.00" fill="#fff" font-size="12" text-anchor="end">$24.45</text>
    
    <text x="660" y="50" fill="#00ff88" font-size="12">● Price</text>
    <text x="660" y="70" fill="#ff8800" font-size="12">● 30-day MA</text>
  
  </svg>